<svg width="76" height="76" viewBox="0 0 76 76" fill="none" xmlns="http://www.w3.org/2000/svg">
<rect x="1.00037" y="1" width="74" height="74" rx="14.5" stroke="#E2E8F0"/>
<path d="M43.6385 30.7847C41.1973 30.7847 40.1656 31.9496 38.4654 31.9496C36.7223 31.9496 35.3927 30.7931 33.2771 30.7931C31.2064 30.7931 28.9983 32.0574 27.596 34.211C25.627 37.248 25.9613 42.9679 29.1503 47.8407C30.291 49.5851 31.8143 51.5413 33.8124 51.5625H33.8487C35.5852 51.5625 36.101 50.4255 38.4908 50.4121H38.5272C40.8812 50.4121 41.3535 51.5559 43.0827 51.5559H43.119C45.1171 51.5347 46.7222 49.3671 47.8629 47.6294C48.6839 46.3797 48.9891 45.7525 49.6187 44.3387C45.0057 42.5877 44.2646 36.048 48.8268 33.5408C47.4342 31.797 45.4773 30.7871 43.6325 30.7871L43.6385 30.7847Z" fill="#2D3748"/>
<path d="M43.101 24.439C41.6478 24.5377 39.9525 25.4628 38.9596 26.6707C38.0586 27.7654 37.3175 29.3893 37.6082 30.9641H37.7244C39.272 30.9641 40.8559 30.0323 41.781 28.8383C42.6723 27.7018 43.348 26.0913 43.101 24.439Z" fill="#2D3748"/>
</svg>
