<svg width="31" height="30" viewBox="0 0 31 30" fill="none" xmlns="http://www.w3.org/2000/svg">
<path d="M0.500244 12C0.500244 5.37258 5.87283 0 12.5002 0H18.5002C25.1277 0 30.5002 5.37258 30.5002 12V18C30.5002 24.6274 25.1277 30 18.5002 30H12.5002C5.87283 30 0.500244 24.6274 0.500244 18V12Z" fill="white"/>
<path d="M15.6631 10.4675C15.6195 10.4258 15.5615 10.4025 15.5011 10.4025C15.4408 10.4025 15.3827 10.4258 15.3391 10.4675L9.94556 15.6199C9.92265 15.6418 9.90443 15.6682 9.89199 15.6973C9.87955 15.7265 9.87316 15.7578 9.87319 15.7895L9.87231 20.6253C9.87231 20.8739 9.97109 21.1124 10.1469 21.2882C10.3227 21.464 10.5612 21.5628 10.8098 21.5628H13.6252C13.7496 21.5628 13.8688 21.5134 13.9567 21.4255C14.0446 21.3376 14.094 21.2184 14.094 21.094V17.1097C14.094 17.0475 14.1187 16.9879 14.1626 16.9439C14.2066 16.9 14.2662 16.8753 14.3284 16.8753H16.6721C16.7343 16.8753 16.7939 16.9 16.8378 16.9439C16.8818 16.9879 16.9065 17.0475 16.9065 17.1097V21.094C16.9065 21.2184 16.9559 21.3376 17.0438 21.4255C17.1317 21.5134 17.2509 21.5628 17.3752 21.5628H20.1895C20.4381 21.5628 20.6766 21.464 20.8524 21.2882C21.0282 21.1124 21.127 20.8739 21.127 20.6253V15.7895C21.127 15.7578 21.1206 15.7265 21.1082 15.6973C21.0958 15.6682 21.0775 15.6418 21.0546 15.6199L15.6631 10.4675Z" fill="#4FD1C5"/>
<path d="M22.3827 14.6537L20.1913 12.5572V9.37585C20.1913 9.25153 20.142 9.13231 20.054 9.0444C19.9661 8.95649 19.8469 8.9071 19.7226 8.9071H18.3163C18.192 8.9071 18.0728 8.95649 17.9849 9.0444C17.897 9.13231 17.8476 9.25153 17.8476 9.37585V10.3134L16.1507 8.69089C15.9919 8.53035 15.7558 8.43835 15.5006 8.43835C15.2463 8.43835 15.0108 8.53035 14.852 8.69119L8.62054 14.6531C8.43832 14.8289 8.41547 15.118 8.58129 15.3085C8.62293 15.3565 8.67391 15.3956 8.73114 15.4234C8.78837 15.4511 8.85064 15.4669 8.91417 15.4698C8.9777 15.4727 9.04115 15.4627 9.10067 15.4403C9.16019 15.4179 9.21453 15.3836 9.26039 15.3395L15.3395 9.53054C15.3831 9.48882 15.4411 9.46553 15.5015 9.46553C15.5619 9.46553 15.6199 9.48882 15.6635 9.53054L21.7432 15.3395C21.8328 15.4254 21.9527 15.4723 22.0768 15.4699C22.2008 15.4674 22.3189 15.4159 22.405 15.3266C22.5849 15.1403 22.57 14.8327 22.3827 14.6537Z" fill="#4FD1C5"/>
</svg>
