<svg width="76" height="76" viewBox="0 0 76 76" fill="none" xmlns="http://www.w3.org/2000/svg">
<rect x="1.00037" y="1" width="74" height="74" rx="14.5" stroke="#E2E8F0"/>
<g clip-path="url(#clip0_92_240)">
<path d="M50.917 37.9999C50.917 30.8699 45.1303 25.0833 38.0003 25.0833C30.8703 25.0833 25.0836 30.8699 25.0836 37.9999C25.0836 44.2516 29.527 49.457 35.417 50.6583V41.8749H32.8336V37.9999H35.417V34.7708C35.417 32.2778 37.4449 30.2499 39.9378 30.2499H43.167V34.1249H40.5836C39.8732 34.1249 39.292 34.7062 39.292 35.4166V37.9999H43.167V41.8749H39.292V50.852C45.8149 50.2062 50.917 44.7037 50.917 37.9999Z" fill="#2D3748"/>
</g>
<defs>
<clipPath id="clip0_92_240">
<rect width="31" height="31" fill="white" transform="translate(22.5001 22.5)"/>
</clipPath>
</defs>
</svg>
