<svg width="76" height="76" viewBox="0 0 76 76" fill="none" xmlns="http://www.w3.org/2000/svg">
<rect x="1.00037" y="1" width="74" height="74" rx="14.5" stroke="#E2E8F0"/>
<path d="M48.18 36.3816L48.074 35.9321H38.3034V40.0674H44.1412C43.5351 42.9455 40.7226 44.4605 38.4253 44.4605C36.7537 44.4605 34.9917 43.7574 33.8255 42.6272C33.2101 42.0215 32.7204 41.3002 32.3841 40.5049C32.0479 39.7096 31.8719 38.8557 31.8661 37.9923C31.8661 36.2504 32.6489 34.508 33.788 33.3619C34.927 32.2158 36.6473 31.5746 38.3578 31.5746C40.3167 31.5746 41.7206 32.6148 42.2456 33.0891L45.1842 30.166C44.3222 29.4085 41.954 27.4998 38.2631 27.4998C35.4155 27.4998 32.685 28.5905 30.689 30.5799C28.7194 32.5388 27.6998 35.3715 27.6998 37.9998C27.6998 40.628 28.6645 43.3191 30.5733 45.2935C32.6128 47.3991 35.5012 48.4997 38.4755 48.4997C41.1815 48.4997 43.7465 47.4394 45.5747 45.5157C47.3719 43.6219 48.3014 41.0016 48.3014 38.2548C48.3014 37.0983 48.1851 36.4116 48.18 36.3816Z" fill="#2D3748"/>
</svg>
