<svg width="35" height="35" viewBox="0 0 35 35" fill="none" xmlns="http://www.w3.org/2000/svg">
<path d="M0 12C0 5.37258 5.37258 0 12 0H23C29.6274 0 35 5.37258 35 12V23C35 29.6274 29.6274 35 23 35H12C5.37258 35 0 29.6274 0 23V12Z" fill="white"/>
<path d="M17.4999 8.49998C12.5312 8.49998 8.49995 12.5312 8.49995 17.5C8.49995 22.4687 12.5312 26.5 17.4999 26.5C22.4687 26.5 26.4999 22.4687 26.4999 17.5C26.4999 12.5312 22.4687 8.49998 17.4999 8.49998ZM17.2187 22.75C17.0333 22.75 16.852 22.695 16.6979 22.592C16.5437 22.489 16.4235 22.3425 16.3526 22.1712C16.2816 21.9999 16.263 21.8114 16.2992 21.6296C16.3354 21.4477 16.4247 21.2807 16.5558 21.1496C16.6869 21.0184 16.8539 20.9292 17.0358 20.893C17.2177 20.8568 17.4062 20.8754 17.5775 20.9463C17.7488 21.0173 17.8952 21.1375 17.9982 21.2916C18.1012 21.4458 18.1562 21.6271 18.1562 21.8125C18.1562 22.0611 18.0574 22.2996 17.8816 22.4754C17.7058 22.6512 17.4673 22.75 17.2187 22.75ZM18.7862 17.9687C18.0264 18.4787 17.9218 18.9461 17.9218 19.375C17.9218 19.549 17.8527 19.7159 17.7296 19.839C17.6065 19.9621 17.4396 20.0312 17.2656 20.0312C17.0915 20.0312 16.9246 19.9621 16.8015 19.839C16.6785 19.7159 16.6093 19.549 16.6093 19.375C16.6093 18.3479 17.0818 17.5314 18.054 16.8784C18.9578 16.2718 19.4687 15.8875 19.4687 15.0423C19.4687 14.4676 19.1406 14.0312 18.4614 13.7083C18.3015 13.6323 17.9457 13.5583 17.5079 13.5634C16.9585 13.5704 16.532 13.7017 16.2034 13.9661C15.5837 14.4648 15.5312 15.0076 15.5312 15.0156C15.527 15.1018 15.506 15.1863 15.4691 15.2643C15.4323 15.3424 15.3805 15.4124 15.3166 15.4704C15.2527 15.5284 15.1781 15.5732 15.0969 15.6024C15.0156 15.6315 14.9295 15.6444 14.8433 15.6402C14.7571 15.6361 14.6726 15.615 14.5946 15.5781C14.5166 15.5413 14.4465 15.4895 14.3885 15.4256C14.3305 15.3617 14.2857 15.2871 14.2565 15.2059C14.2274 15.1247 14.2145 15.0385 14.2187 14.9523C14.2239 14.8384 14.3031 13.8123 15.3798 12.9461C15.9381 12.497 16.6482 12.2636 17.4892 12.2533C18.0845 12.2462 18.6437 12.347 19.0229 12.5261C20.1578 13.0628 20.7812 13.9576 20.7812 15.0423C20.7812 16.6281 19.7214 17.3401 18.7862 17.9687Z" fill="#4FD1C5"/>
</svg>
