<svg width="30" height="30" viewBox="0 0 30 30" fill="none" xmlns="http://www.w3.org/2000/svg">
<path d="M0 12C0 5.37258 5.37258 0 12 0H18C24.6274 0 30 5.37258 30 12V18C30 24.6274 24.6274 30 18 30H12C5.37258 30 0 24.6274 0 18V12Z" fill="white"/>
<path d="M17.2452 9.39175C16.6751 8.77622 15.8788 8.43726 14.9999 8.43726C14.1163 8.43726 13.3174 8.77417 12.7499 9.38589C12.1763 10.0043 11.8968 10.8449 11.9624 11.7525C12.0925 13.5431 13.4551 14.9998 14.9999 14.9998C16.5447 14.9998 17.905 13.5434 18.0371 11.7531C18.1036 10.8537 17.8224 10.0149 17.2452 9.39175Z" fill="#4FD1C5"/>
<path d="M20.1562 21.5616H9.84367C9.70869 21.5633 9.57502 21.535 9.45237 21.4786C9.32973 21.4222 9.2212 21.3391 9.13469 21.2355C8.94426 21.0079 8.8675 20.697 8.92434 20.3827C9.1716 19.011 9.94328 17.8588 11.1562 17.0499C12.2337 16.3318 13.5987 15.9366 14.9999 15.9366C16.4012 15.9366 17.7661 16.3321 18.8437 17.0499C20.0566 17.8585 20.8282 19.0107 21.0755 20.3824C21.1323 20.6967 21.0556 21.0076 20.8652 21.2352C20.7787 21.3389 20.6702 21.422 20.5475 21.4784C20.4249 21.5349 20.2912 21.5633 20.1562 21.5616Z" fill="#4FD1C5"/>
</svg>
