<svg width="30" height="30" viewBox="0 0 30 30" fill="none" xmlns="http://www.w3.org/2000/svg">
<path d="M0 12C0 5.37258 5.37258 0 12 0H18C24.6274 0 30 5.37258 30 12V18C30 24.6274 24.6274 30 18 30H12C5.37258 30 0 24.6274 0 18V12Z" fill="white"/>
<path d="M21.2567 11.0314C21.2229 10.9658 21.1741 10.909 21.1143 10.8658C21.0545 10.8226 20.9853 10.7941 20.9123 10.7827C20.8394 10.7712 20.7648 10.7772 20.6946 10.8001C20.6244 10.8229 20.5607 10.862 20.5084 10.9142L18.7084 12.7154C18.6201 12.8025 18.501 12.8513 18.3769 12.8513C18.2529 12.8513 18.1338 12.8025 18.0455 12.7154L17.2673 11.9361C17.2238 11.8926 17.1893 11.8409 17.1657 11.784C17.1421 11.7271 17.13 11.6662 17.13 11.6046C17.13 11.543 17.1421 11.4821 17.1657 11.4252C17.1893 11.3683 17.2238 11.3166 17.2673 11.2731L19.0597 9.48044C19.1134 9.42672 19.1533 9.36074 19.1759 9.28818C19.1984 9.21563 19.203 9.13868 19.1893 9.06395C19.1755 8.98923 19.1437 8.91898 19.0968 8.85924C19.0498 8.79951 18.989 8.75209 18.9197 8.72107C17.5659 8.11579 15.876 8.43161 14.8105 9.48923C13.9052 10.3881 13.6354 11.7926 14.0707 13.3426C14.0942 13.4253 14.0944 13.5129 14.0711 13.5956C14.0479 13.6783 14.0023 13.753 13.9392 13.8114L9.06186 18.266C8.87186 18.4366 8.7186 18.6441 8.61143 18.8759C8.50427 19.1077 8.44544 19.3588 8.43855 19.6141C8.43166 19.8694 8.47684 20.1234 8.57134 20.3606C8.66584 20.5978 8.80768 20.8133 8.98821 20.9939C9.16873 21.1745 9.38415 21.3164 9.62134 21.4111C9.85852 21.5057 10.1125 21.551 10.3678 21.5442C10.623 21.5374 10.8742 21.4787 11.1061 21.3716C11.3379 21.2646 11.5455 21.1114 11.7162 20.9215L16.2185 16.0333C16.276 15.971 16.3495 15.9257 16.4309 15.9021C16.5123 15.8785 16.5986 15.8776 16.6805 15.8994C17.1218 16.0203 17.577 16.083 18.0346 16.086C19.0131 16.086 19.8718 15.7693 20.4912 15.1591C21.6381 14.0291 21.813 12.1125 21.2567 11.0314ZM10.4151 20.6007C10.2221 20.6217 10.0274 20.5824 9.85777 20.488C9.68814 20.3937 9.55196 20.2491 9.46803 20.0741C9.38411 19.899 9.35657 19.7023 9.38922 19.511C9.42188 19.3196 9.51311 19.1432 9.65033 19.0059C9.78755 18.8686 9.964 18.7773 10.1553 18.7446C10.3466 18.7119 10.5434 18.7394 10.7184 18.8232C10.8935 18.9071 11.0382 19.0432 11.1326 19.2128C11.2269 19.3824 11.2664 19.5771 11.2454 19.7701C11.2223 19.9824 11.1274 20.1805 10.9764 20.3315C10.8254 20.4825 10.6274 20.5775 10.4151 20.6007Z" fill="#4FD1C5"/>
</svg>
