<svg width="30" height="30" viewBox="0 0 30 30" fill="none" xmlns="http://www.w3.org/2000/svg">
<path d="M0 12C0 5.37258 5.37258 0 12 0H18C24.6274 0 30 5.37258 30 12V18C30 24.6274 24.6274 30 18 30H12C5.37258 30 0 24.6274 0 18V12Z" fill="#4FD1C5"/>
<path d="M20.0391 14.0627H15.9375C15.5645 14.0627 15.2069 13.9145 14.9431 13.6508C14.6794 13.387 14.5312 13.0294 14.5312 12.6564V8.55484C14.5312 8.52376 14.5189 8.49395 14.4969 8.47198C14.4749 8.45 14.4451 8.43765 14.4141 8.43765H11.7188C11.2215 8.43765 10.7446 8.6352 10.3929 8.98683C10.0413 9.33846 9.84375 9.81537 9.84375 10.3127V19.6876C9.84375 20.1849 10.0413 20.6618 10.3929 21.0135C10.7446 21.3651 11.2215 21.5626 11.7188 21.5626H18.2812C18.7785 21.5626 19.2554 21.3651 19.6071 21.0135C19.9587 20.6618 20.1562 20.1849 20.1562 19.6876V14.1798C20.1562 14.1488 20.1439 14.119 20.1219 14.097C20.0999 14.075 20.0701 14.0627 20.0391 14.0627Z" fill="white"/>
<path d="M19.7818 13.026L15.5687 8.81282C15.5605 8.80467 15.55 8.79913 15.5387 8.79689C15.5274 8.79465 15.5156 8.79581 15.505 8.80022C15.4943 8.80464 15.4851 8.81211 15.4787 8.8217C15.4723 8.83129 15.4688 8.84257 15.4688 8.85412V12.6572C15.4688 12.7815 15.5181 12.9007 15.606 12.9886C15.694 13.0765 15.8132 13.1259 15.9375 13.1259H19.7405C19.7521 13.1259 19.7634 13.1224 19.773 13.1159C19.7825 13.1095 19.79 13.1004 19.7944 13.0897C19.7988 13.079 19.8 13.0673 19.7978 13.0559C19.7955 13.0446 19.79 13.0342 19.7818 13.026Z" fill="white"/>
</svg>
