<svg width="30" height="30" viewBox="0 0 30 30" fill="none" xmlns="http://www.w3.org/2000/svg">
<path d="M0 12C0 5.37258 5.37258 0 12 0H18C24.6274 0 30 5.37258 30 12V18C30 24.6274 24.6274 30 18 30H12C5.37258 30 0 24.6274 0 18V12Z" fill="#4FD1C5"/>
<path d="M8.4375 18.5152C8.4375 18.9503 8.61035 19.3676 8.91803 19.6753C9.2257 19.983 9.643 20.1558 10.0781 20.1558H19.9219C20.357 20.1558 20.7743 19.983 21.082 19.6753C21.3896 19.3676 21.5625 18.9503 21.5625 18.5152V14.0035H8.4375V18.5152ZM10.3711 16.2886C10.3711 16.0555 10.4637 15.832 10.6285 15.6672C10.7933 15.5023 11.0169 15.4097 11.25 15.4097H12.6562C12.8893 15.4097 13.1129 15.5023 13.2777 15.6672C13.4426 15.832 13.5352 16.0555 13.5352 16.2886V16.8746C13.5352 17.1077 13.4426 17.3312 13.2777 17.4961C13.1129 17.6609 12.8893 17.7535 12.6562 17.7535H11.25C11.0169 17.7535 10.7933 17.6609 10.6285 17.4961C10.4637 17.3312 10.3711 17.1077 10.3711 16.8746V16.2886Z" fill="white"/>
<path d="M19.9219 9.84296H10.0781C9.643 9.84296 9.2257 10.0158 8.91803 10.3235C8.61035 10.6312 8.4375 11.0485 8.4375 11.4836V12.2453H21.5625V11.4836C21.5625 11.0485 21.3896 10.6312 21.082 10.3235C20.7743 10.0158 20.357 9.84296 19.9219 9.84296Z" fill="white"/>
</svg>
