<svg width="30" height="30" viewBox="0 0 30 30" fill="none" xmlns="http://www.w3.org/2000/svg">
<path d="M0 12C0 5.37258 5.37258 0 12 0H18C24.6274 0 30 5.37258 30 12V18C30 24.6274 24.6274 30 18 30H12C5.37258 30 0 24.6274 0 18V12Z" fill="white"/>
<path d="M21.4934 8.62157C21.488 8.59566 21.4754 8.57181 21.457 8.55282C21.4386 8.53382 21.4151 8.52048 21.3894 8.51434C19.6735 8.09481 15.7087 9.58983 13.5607 11.737C13.1775 12.117 12.8283 12.5297 12.5168 12.9704C11.8544 12.9118 11.192 12.9607 10.6275 13.2068C9.03459 13.9079 8.57082 15.7372 8.44162 16.5241C8.4343 16.5672 8.43706 16.6114 8.4497 16.6532C8.46234 16.695 8.48451 16.7333 8.51447 16.7651C8.54442 16.7969 8.58135 16.8213 8.62234 16.8365C8.66333 16.8516 8.70727 16.857 8.75071 16.8522L11.3086 16.5701C11.3104 16.7629 11.3221 16.9556 11.3435 17.1472C11.3564 17.2803 11.4154 17.4047 11.5105 17.4988L12.501 18.487C12.5952 18.5819 12.7195 18.641 12.8526 18.654C13.0432 18.6753 13.2347 18.6869 13.4265 18.6888L13.1458 21.2435C13.1411 21.287 13.1466 21.3309 13.1617 21.3718C13.1769 21.4128 13.2013 21.4497 13.2331 21.4796C13.2648 21.5096 13.3031 21.5317 13.3449 21.5444C13.3867 21.5571 13.4309 21.5599 13.4739 21.5526C14.2594 21.4266 16.0919 20.9629 16.7889 19.37C17.035 18.8054 17.0854 18.1463 17.0285 17.4871C17.4703 17.1756 17.8841 16.8262 18.2652 16.4429C20.4199 14.299 21.9065 10.4227 21.4934 8.62157ZM16.1154 13.8853C15.9186 13.6887 15.7846 13.4381 15.7302 13.1653C15.6759 12.8925 15.7037 12.6097 15.8101 12.3527C15.9165 12.0957 16.0967 11.876 16.328 11.7214C16.5593 11.5669 16.8312 11.4844 17.1094 11.4844C17.3876 11.4844 17.6595 11.5669 17.8908 11.7214C18.122 11.876 18.3023 12.0957 18.4087 12.3527C18.5151 12.6097 18.5429 12.8925 18.4886 13.1653C18.4342 13.4381 18.3002 13.6887 18.1034 13.8853C17.973 14.016 17.818 14.1196 17.6474 14.1904C17.4769 14.2611 17.294 14.2975 17.1094 14.2975C16.9247 14.2975 16.7419 14.2611 16.5713 14.1904C16.4008 14.1196 16.2458 14.016 16.1154 13.8853Z" fill="#4FD1C5"/>
<path d="M12.4336 19.2028C12.273 19.3636 12.0155 19.4263 11.7056 19.4799C11.0092 19.5986 10.3942 18.9968 10.5193 18.2928C10.5671 18.0259 10.7083 17.6518 10.7962 17.5639C10.8154 17.545 10.8282 17.5206 10.8327 17.4941C10.8373 17.4676 10.8334 17.4403 10.8215 17.4162C10.8097 17.392 10.7905 17.3722 10.7668 17.3595C10.743 17.3468 10.7159 17.342 10.6893 17.3456C10.2998 17.3933 9.93754 17.5698 9.66006 17.8472C8.97129 18.5365 8.90625 21.0945 8.90625 21.0945C8.90625 21.0945 11.4656 21.0294 12.1544 20.3401C12.4326 20.0628 12.6094 19.7 12.6562 19.31C12.6671 19.1875 12.518 19.1146 12.4336 19.2028Z" fill="#4FD1C5"/>
</svg>
