<svg width="37" height="36" viewBox="0 0 37 36" fill="none" xmlns="http://www.w3.org/2000/svg">
<g filter="url(#filter0_d_10_136)">
<rect x="5.99902" y="2" width="25" height="25" rx="6" fill="#4FD1C5"/>
</g>
<path d="M14.5813 10.7879H22.3938C22.4851 10.7878 22.5762 10.7936 22.6667 10.8052C22.6361 10.5898 22.5621 10.3829 22.4493 10.1969C22.3364 10.0108 22.1871 9.8496 22.0103 9.72284C21.8335 9.59609 21.6328 9.50646 21.4204 9.45936C21.208 9.41226 20.9882 9.40866 20.7744 9.44877L14.3494 10.5457H14.342C13.9387 10.6228 13.5801 10.851 13.3394 11.1836C13.702 10.9257 14.1362 10.7873 14.5813 10.7879Z" fill="white"/>
<path d="M22.3938 11.3749H14.5813C14.167 11.3754 13.7699 11.5402 13.4769 11.8331C13.184 12.126 13.0193 12.5232 13.0188 12.9374V17.6249C13.0193 18.0392 13.184 18.4364 13.4769 18.7293C13.7699 19.0222 14.167 19.187 14.5813 19.1874H22.3938C22.8081 19.187 23.2052 19.0222 23.4982 18.7293C23.7911 18.4364 23.9558 18.0392 23.9563 17.6249V12.9374C23.9558 12.5232 23.7911 12.126 23.4982 11.8331C23.2052 11.5402 22.8081 11.3754 22.3938 11.3749ZM21.2341 16.0624C21.0796 16.0624 20.9286 16.0166 20.8001 15.9308C20.6716 15.8449 20.5715 15.7229 20.5123 15.5802C20.4532 15.4374 20.4377 15.2803 20.4679 15.1288C20.498 14.9772 20.5724 14.838 20.6817 14.7288C20.791 14.6195 20.9302 14.5451 21.0817 14.5149C21.2333 14.4848 21.3903 14.5003 21.5331 14.5594C21.6759 14.6185 21.7979 14.7187 21.8837 14.8471C21.9696 14.9756 22.0154 15.1267 22.0154 15.2812C22.0154 15.4884 21.9331 15.6871 21.7866 15.8336C21.64 15.9801 21.4413 16.0624 21.2341 16.0624Z" fill="white"/>
<path d="M13.031 14.5841V12.1549C13.031 11.6259 13.324 10.7389 14.3408 10.5468C15.2039 10.3849 16.0583 10.3849 16.0583 10.3849C16.0583 10.3849 16.6199 10.7755 16.156 10.7755C15.6921 10.7755 15.7043 11.3737 16.156 11.3737C16.6077 11.3737 16.156 11.9474 16.156 11.9474L14.3372 14.0104L13.031 14.5841Z" fill="white"/>
<defs>
<filter id="filter0_d_10_136" x="0.499023" y="-2.38419e-07" width="36" height="36" filterUnits="userSpaceOnUse" color-interpolation-filters="sRGB">
<feFlood flood-opacity="0" result="BackgroundImageFix"/>
<feColorMatrix in="SourceAlpha" type="matrix" values="0 0 0 0 0 0 0 0 0 0 0 0 0 0 0 0 0 0 127 0" result="hardAlpha"/>
<feOffset dy="3.5"/>
<feGaussianBlur stdDeviation="2.75"/>
<feColorMatrix type="matrix" values="0 0 0 0 0 0 0 0 0 0 0 0 0 0 0 0 0 0 0.02 0"/>
<feBlend mode="normal" in2="BackgroundImageFix" result="effect1_dropShadow_10_136"/>
<feBlend mode="normal" in="SourceGraphic" in2="effect1_dropShadow_10_136" result="shape"/>
</filter>
</defs>
</svg>
