<svg width="37" height="36" viewBox="0 0 37 36" fill="none" xmlns="http://www.w3.org/2000/svg">
<g filter="url(#filter0_d_10_170)">
<rect x="5.9989" y="2" width="25" height="25" rx="6" fill="#4FD1C5"/>
</g>
<path d="M16.5466 19.1874C16.9781 19.1874 17.3279 18.8377 17.3279 18.4062C17.3279 17.9747 16.9781 17.6249 16.5466 17.6249C16.1152 17.6249 15.7654 17.9747 15.7654 18.4062C15.7654 18.8377 16.1152 19.1874 16.5466 19.1874Z" fill="white"/>
<path d="M22.0154 19.1874C22.4469 19.1874 22.7966 18.8377 22.7966 18.4062C22.7966 17.9747 22.4469 17.6249 22.0154 17.6249C21.5839 17.6249 21.2341 17.9747 21.2341 18.4062C21.2341 18.8377 21.5839 19.1874 22.0154 19.1874Z" fill="white"/>
<path d="M23.4021 11.1989C23.3472 11.1317 23.2781 11.0777 23.1997 11.0406C23.1213 11.0035 23.0357 10.9843 22.949 10.9845H15.5186L15.3689 10.1354C15.3529 10.0449 15.3056 9.963 15.2353 9.90397C15.1649 9.84495 15.076 9.8126 14.9841 9.81262H13.4216C13.318 9.81262 13.2187 9.85378 13.1454 9.92703C13.0722 10.0003 13.031 10.0996 13.031 10.2032C13.031 10.3068 13.0722 10.4062 13.1454 10.4795C13.2187 10.5527 13.318 10.5939 13.4216 10.5939H14.6565L15.7712 16.9117C15.7872 17.0022 15.8345 17.0841 15.9049 17.1431C15.9752 17.2022 16.0642 17.2345 16.156 17.2345H22.406C22.5096 17.2345 22.609 17.1933 22.6822 17.1201C22.7555 17.0468 22.7966 16.9475 22.7966 16.8439C22.7966 16.7403 22.7555 16.6409 22.6822 16.5677C22.609 16.4944 22.5096 16.4532 22.406 16.4532H16.4836L16.3459 15.672H22.2458C22.3813 15.6718 22.5126 15.6249 22.6174 15.539C22.7222 15.4532 22.7941 15.3338 22.821 15.201L23.5242 11.6854C23.5411 11.6003 23.5389 11.5126 23.5178 11.4284C23.4967 11.3443 23.4572 11.2659 23.4021 11.1989Z" fill="white"/>
<defs>
<filter id="filter0_d_10_170" x="0.498901" y="-2.38419e-07" width="36" height="36" filterUnits="userSpaceOnUse" color-interpolation-filters="sRGB">
<feFlood flood-opacity="0" result="BackgroundImageFix"/>
<feColorMatrix in="SourceAlpha" type="matrix" values="0 0 0 0 0 0 0 0 0 0 0 0 0 0 0 0 0 0 127 0" result="hardAlpha"/>
<feOffset dy="3.5"/>
<feGaussianBlur stdDeviation="2.75"/>
<feColorMatrix type="matrix" values="0 0 0 0 0 0 0 0 0 0 0 0 0 0 0 0 0 0 0.02 0"/>
<feBlend mode="normal" in2="BackgroundImageFix" result="effect1_dropShadow_10_170"/>
<feBlend mode="normal" in="SourceGraphic" in2="effect1_dropShadow_10_170" result="shape"/>
</filter>
</defs>
</svg>
