<svg width="37" height="36" viewBox="0 0 37 36" fill="none" xmlns="http://www.w3.org/2000/svg">
<g filter="url(#filter0_d_10_185)">
<rect x="5.99902" y="2" width="25" height="25" rx="6" fill="#4FD1C5"/>
</g>
<path d="M23.7136 11.1928C23.6855 11.1381 23.6448 11.0908 23.595 11.0548C23.5451 11.0188 23.4874 10.995 23.4266 10.9855C23.3659 10.976 23.3037 10.981 23.2452 11C23.1867 11.0191 23.1336 11.0517 23.0901 11.0952L21.5901 12.5961C21.5164 12.6687 21.4172 12.7094 21.3138 12.7094C21.2104 12.7094 21.1112 12.6687 21.0376 12.5961L20.3891 11.9467C20.3529 11.9104 20.3241 11.8674 20.3044 11.82C20.2848 11.7726 20.2747 11.7218 20.2747 11.6705C20.2747 11.6192 20.2848 11.5684 20.3044 11.521C20.3241 11.4736 20.3529 11.4305 20.3891 11.3942L21.8828 9.90034C21.9276 9.85557 21.9608 9.80058 21.9796 9.74012C21.9984 9.67966 22.0022 9.61553 21.9907 9.55326C21.9793 9.49099 21.9528 9.43245 21.9137 9.38267C21.8745 9.3329 21.8239 9.29338 21.7661 9.26753C20.6379 8.76313 19.2297 9.02631 18.3418 9.90766C17.5874 10.6567 17.3625 11.8271 17.7253 13.1188C17.7449 13.1877 17.745 13.2607 17.7256 13.3296C17.7063 13.3986 17.6682 13.4608 17.6157 13.5095L13.5512 17.2216C13.3929 17.3638 13.2652 17.5367 13.1759 17.7299C13.0866 17.923 13.0376 18.1323 13.0318 18.3451C13.0261 18.5578 13.0637 18.7694 13.1425 18.9671C13.2212 19.1648 13.3394 19.3444 13.4899 19.4949C13.6403 19.6454 13.8198 19.7637 14.0175 19.8425C14.2151 19.9214 14.4268 19.9591 14.6395 19.9534C14.8522 19.9478 15.0616 19.8989 15.2547 19.8097C15.4479 19.7204 15.6209 19.5928 15.7632 19.4345L19.5151 15.361C19.5631 15.3092 19.6243 15.2714 19.6921 15.2517C19.7599 15.232 19.8319 15.2313 19.9001 15.2495C20.2679 15.3502 20.6472 15.4025 21.0285 15.405C21.844 15.405 22.5595 15.1411 23.0757 14.6325C24.0315 13.6909 24.1772 12.0937 23.7136 11.1928ZM14.6789 19.1672C14.5181 19.1847 14.3559 19.1519 14.2145 19.0733C14.0731 18.9947 13.9597 18.8742 13.8897 18.7284C13.8198 18.5825 13.7968 18.4186 13.824 18.2591C13.8513 18.0997 13.9273 17.9526 14.0416 17.8382C14.156 17.7238 14.303 17.6477 14.4625 17.6205C14.6219 17.5932 14.7859 17.6161 14.9317 17.686C15.0776 17.7559 15.1982 17.8693 15.2768 18.0106C15.3555 18.152 15.3883 18.3142 15.3708 18.475C15.3516 18.652 15.2725 18.817 15.1467 18.9429C15.0209 19.0687 14.8558 19.1479 14.6789 19.1672Z" fill="white"/>
<defs>
<filter id="filter0_d_10_185" x="0.499023" y="-2.38419e-07" width="36" height="36" filterUnits="userSpaceOnUse" color-interpolation-filters="sRGB">
<feFlood flood-opacity="0" result="BackgroundImageFix"/>
<feColorMatrix in="SourceAlpha" type="matrix" values="0 0 0 0 0 0 0 0 0 0 0 0 0 0 0 0 0 0 127 0" result="hardAlpha"/>
<feOffset dy="3.5"/>
<feGaussianBlur stdDeviation="2.75"/>
<feColorMatrix type="matrix" values="0 0 0 0 0 0 0 0 0 0 0 0 0 0 0 0 0 0 0.02 0"/>
<feBlend mode="normal" in2="BackgroundImageFix" result="effect1_dropShadow_10_185"/>
<feBlend mode="normal" in="SourceGraphic" in2="effect1_dropShadow_10_185" result="shape"/>
</filter>
</defs>
</svg>
