<svg width="37" height="36" viewBox="0 0 37 36" fill="none" xmlns="http://www.w3.org/2000/svg">
<g filter="url(#filter0_d_10_155)">
<rect x="5.9989" y="2" width="25" height="25" rx="6" fill="#4FD1C5"/>
</g>
<path d="M23.9108 9.18465C23.9063 9.16306 23.8958 9.14319 23.8805 9.12736C23.8651 9.11154 23.8456 9.10041 23.8241 9.0953C22.3942 8.74569 19.0902 9.99154 17.3002 11.7808C16.9809 12.0975 16.6899 12.4414 16.4303 12.8087C15.8783 12.7598 15.3263 12.8006 14.8559 13.0057C13.5285 13.5899 13.142 15.1143 13.0343 15.7701C13.0282 15.806 13.0305 15.8428 13.0411 15.8777C13.0516 15.9125 13.0701 15.9444 13.095 15.9709C13.12 15.9975 13.1508 16.0178 13.1849 16.0304C13.2191 16.043 13.2557 16.0475 13.2919 16.0435L15.4235 15.8084C15.425 15.9691 15.4347 16.1297 15.4526 16.2894C15.4633 16.4003 15.5125 16.504 15.5917 16.5824L16.4172 17.4058C16.4956 17.4849 16.5992 17.5342 16.7101 17.545C16.8689 17.5628 17.0286 17.5725 17.1884 17.5741L16.9545 19.703C16.9506 19.7391 16.9551 19.7757 16.9677 19.8099C16.9804 19.844 17.0007 19.8748 17.0272 19.8997C17.0537 19.9247 17.0856 19.9431 17.1204 19.9537C17.1553 19.9642 17.1921 19.9666 17.2279 19.9605C17.8825 19.8555 19.4096 19.4691 19.9904 18.1417C20.1955 17.6712 20.2375 17.1219 20.1901 16.5726C20.5582 16.313 20.903 16.0219 21.2206 15.7025C23.0163 13.9159 24.255 10.6856 23.9108 9.18465ZM19.4291 13.5711C19.2651 13.4073 19.1535 13.1985 19.1082 12.9711C19.0629 12.7438 19.0861 12.5081 19.1747 12.2939C19.2634 12.0798 19.4136 11.8967 19.6063 11.7679C19.7991 11.6391 20.0257 11.5703 20.2575 11.5703C20.4893 11.5703 20.7159 11.6391 20.9086 11.7679C21.1014 11.8967 21.2516 12.0798 21.3402 12.2939C21.4289 12.5081 21.4521 12.7438 21.4068 12.9711C21.3615 13.1985 21.2498 13.4073 21.0858 13.5711C20.9771 13.68 20.848 13.7664 20.7059 13.8253C20.5637 13.8843 20.4114 13.9146 20.2575 13.9146C20.1036 13.9146 19.9512 13.8843 19.8091 13.8253C19.667 13.7664 19.5378 13.68 19.4291 13.5711Z" fill="white"/>
<path d="M16.3611 18.0023C16.2273 18.1364 16.0127 18.1886 15.7544 18.2333C15.1741 18.3322 14.6616 17.8307 14.7659 17.244C14.8057 17.0216 14.9233 16.7098 14.9966 16.6366C15.0126 16.6209 15.0232 16.6006 15.027 16.5785C15.0308 16.5564 15.0276 16.5336 15.0177 16.5135C15.0078 16.4933 14.9919 16.4768 14.9721 16.4663C14.9523 16.4557 14.9297 16.4517 14.9075 16.4547C14.5829 16.4944 14.281 16.6416 14.0498 16.8727C13.4758 17.4471 13.4216 19.5787 13.4216 19.5787C13.4216 19.5787 15.5544 19.5245 16.1284 18.9501C16.3603 18.719 16.5076 18.4167 16.5466 18.0917C16.5557 17.9896 16.4314 17.9288 16.3611 18.0023Z" fill="white"/>
<defs>
<filter id="filter0_d_10_155" x="0.498901" y="-2.38419e-07" width="36" height="36" filterUnits="userSpaceOnUse" color-interpolation-filters="sRGB">
<feFlood flood-opacity="0" result="BackgroundImageFix"/>
<feColorMatrix in="SourceAlpha" type="matrix" values="0 0 0 0 0 0 0 0 0 0 0 0 0 0 0 0 0 0 127 0" result="hardAlpha"/>
<feOffset dy="3.5"/>
<feGaussianBlur stdDeviation="2.75"/>
<feColorMatrix type="matrix" values="0 0 0 0 0 0 0 0 0 0 0 0 0 0 0 0 0 0 0.02 0"/>
<feBlend mode="normal" in2="BackgroundImageFix" result="effect1_dropShadow_10_155"/>
<feBlend mode="normal" in="SourceGraphic" in2="effect1_dropShadow_10_155" result="shape"/>
</filter>
</defs>
</svg>
